<?xml version="1.0" encoding="UTF-8" standalone="no"?>
<!DOCTYPE svg PUBLIC "-//W3C//DTD SVG 1.1//EN" "http://www.w3.org/Graphics/SVG/1.1/DTD/svg11.dtd">
<svg width="800" height="800" viewBox="0 0 762 800" version="1.1" xmlns="http://www.w3.org/2000/svg" xmlns:xlink="http://www.w3.org/1999/xlink" xml:space="preserve" xmlns:serif="http://www.serif.com/" style="fill-rule:evenodd;clip-rule:evenodd;stroke-linejoin:round;stroke-miterlimit:2;">
    <g transform="matrix(1,0,0,1,-19.3893,-2.27374e-13)">
        <g>
            <g transform="matrix(0.196097,0,0,0.298873,-3210.05,-2025.3)">
                <path d="M19347.7,8138.6C19000.2,8506.07 18610.4,8727.14 19002.3,9195.44C19002.3,9195.44 18725.3,9383.12 18588.9,9386.06C18452.5,9389.01 18183.9,9213.1 18183.9,9213.1C18465.4,8804.15 18044.5,8559.41 17760.6,8138.6L19347.7,8138.6Z" style="fill:rgb(136,197,0);"/>
            </g>
            <g transform="matrix(0.209558,0,0,0.190107,-2591.94,-1414.8)">
                <path d="M14289,9724.99C14153.2,9918.16 13928.7,10044.5 13674.9,10044.5C13261,10044.5 12924.9,9708.45 12924.9,9294.53C12924.9,8958.53 13146.4,8673.84 13451.1,8578.56C13447.9,8550.33 13446.3,8521.62 13446.3,8492.53C13446.3,8078.61 13782.3,7742.55 14196.2,7742.55C14488.7,7742.55 14725.1,7860.59 14848.7,8105.03C14942.8,8048.04 15070.4,8064.94 15188.3,8064.94C15532.6,8064.94 15812.1,8344.45 15812.1,8688.74C15812.1,8799.5 15783.2,8903.57 15732.5,8993.77C15860.9,9092.78 15944.2,9252.14 15944.2,9431.73C15944.2,9731.75 15711.6,9975.33 15425.1,9975.33C15188.3,9975.33 14988.4,9808.93 14926.1,9581.79C14819.4,9696.21 14669.9,9767.41 14504.4,9767.41C14428.4,9767.41 14355.7,9752.36 14289,9724.99Z" style="fill:rgb(43,57,14);"/>
            </g>
            <g transform="matrix(0.188303,0,0,0.178844,-2316.32,-1309.72)">
                <path d="M14289,9724.99C14153.2,9918.16 13928.7,10044.5 13674.9,10044.5C13261,10044.5 12924.9,9708.45 12924.9,9294.53C12924.9,8958.53 13146.4,8673.84 13451.1,8578.56C13447.9,8550.33 13446.3,8521.62 13446.3,8492.53C13446.3,8078.61 13782.3,7742.55 14196.2,7742.55C14488.7,7742.55 14742.3,7910.3 14865.9,8154.74C14960,8097.75 15070.4,8064.94 15188.3,8064.94C15532.6,8064.94 15812.1,8344.45 15812.1,8688.74C15812.1,8799.5 15783.2,8903.57 15732.5,8993.77C15860.9,9092.78 15944.2,9252.14 15944.2,9431.73C15944.2,9731.75 15711.6,9975.33 15425.1,9975.33C15188.3,9975.33 14988.4,9808.93 14926.1,9581.79C14819.4,9696.21 14669.9,9767.41 14504.4,9767.41C14428.4,9767.41 14355.7,9752.36 14289,9724.99Z" style="fill:rgb(68,97,5);"/>
            </g>
            <g transform="matrix(0.253922,0,0,0.291848,-4314.94,-1965.9)">
                <path d="M19719.4,7612.61C19730.2,7582.14 19736,7550.03 19736,7516.86C19736,7313.6 19522.1,7153.23 19264.6,7153.23C19174.1,7153.23 19089.4,7172.94 19017.2,7207.44L18875.4,7171.96C18778.3,7020.45 18578,6918.23 18348.3,6918.23C18026.5,6918.23 17760.4,7119.81 17760.4,7373.83C17760.4,7391.18 17761.7,7408.3 17764.1,7425.14L17688.8,7524.18C17453.3,7582.28 17278.9,7753.55 17278.9,7958.45C17278.9,8045.83 17310.8,8127.34 17365.6,8196.35C17398.5,8237.73 17386.5,8294.51 17339,8323.08C17291.4,8351.65 17226.2,8341.26 17193.3,8299.89C17114.7,8200.89 17069.5,8083.79 17069.5,7958.45C17069.5,7697.47 17266.3,7471.04 17551,7372.7C17551.8,7023.75 17906.1,6736.03 18348.3,6736.03C18621.5,6736.03 18861.8,6846.18 19005.1,7012.13C19085,6985.7 19172.6,6971.04 19264.6,6971.04C19643,6971.04 19945.4,7218.16 19945.4,7516.86C19945.4,7587.04 19928.9,7654.2 19898.7,7716.01C20003.1,7804.26 20067.4,7925.44 20067.4,8058.46C20067.4,8326.13 19807.1,8545.82 19483.3,8545.82C19363.2,8545.82 19251.8,8515.6 19159.2,8463.91C19045.3,8577.72 18954.6,8683.98 18944,8810.24C18935.9,8906.72 18978.6,9012.43 19086.9,9141.82C19120.2,9181.57 19111.2,9237.11 19066.6,9267.32C19066.6,9267.32 18922,9365.12 18785.4,9424.95C18714.5,9456.05 18644.3,9475.99 18591.5,9477.13C18537.9,9478.29 18467.8,9461.12 18397.2,9432.65C18262.3,9378.23 18120.9,9285.88 18120.9,9285.88C18078.2,9257.86 18066.6,9206.27 18094.1,9166.3C18249.4,8940.62 18144.6,8774.79 17992.1,8588.41C17951.3,8593.57 17909.5,8596.25 17866.9,8596.25C17809.1,8596.25 17762.2,8555.43 17762.2,8505.15C17762.2,8454.88 17809.1,8414.06 17866.9,8414.06C18017.8,8414.06 18155.9,8369.9 18260.6,8296.57C18094.6,8199.52 17986.7,8039.56 17986.7,7859.98C17986.7,7566.69 18274.6,7325.71 18633,7325.71C18889,7325.71 19109.3,7448.93 19214,7625.92C19294.5,7590.93 19386,7571.1 19483.3,7571.1C19567.4,7571.1 19647.3,7585.94 19719.4,7612.61ZM19249.9,8297.15C19314.1,8338.83 19395.4,8363.63 19483.3,8363.63C19688.6,8363.63 19858,8228.21 19858,8058.46C19858,7888.71 19688.6,7753.3 19483.3,7753.3C19277.9,7753.3 19108.6,7888.71 19108.6,8058.46C19108.6,8129.62 19138.4,8194.75 19188,8246.4C19200.6,8250.22 19212.4,8256.19 19223,8264.34C19235,8273.7 19244,8284.96 19249.9,8297.15ZM19006.6,8339.94C18998.2,8330 18990.2,8319.8 18982.6,8309.34C18882,8362.97 18761.9,8394.26 18633,8394.26C18576.2,8394.26 18521.1,8388.2 18468.7,8376.83C18396.2,8443.47 18306.4,8498.14 18204.8,8536.24C18364.4,8744.8 18450.1,8940.46 18319.8,9184.64C18352.8,9203.66 18394,9226.1 18437,9246.24C18490.4,9271.22 18545.4,9295.88 18586.3,9294.99C18628.1,9294.09 18685.3,9266.66 18741.1,9238.73C18784.1,9217.22 18825.5,9193.59 18859.1,9173.37C18758.5,9031.11 18725.8,8908.27 18735.2,8797.01C18748.9,8633.14 18859.3,8490.26 19006.6,8339.94ZM18906.3,8134.53C18901.6,8109.72 18899.2,8084.32 18899.2,8058.46C18899.2,7936.33 18953.4,7824.18 19043.1,7738.33C18981.2,7602.94 18820.1,7507.9 18633,7507.9C18393.6,7507.9 18196.1,7664.07 18196.1,7859.98C18196.1,8055.89 18393.6,8212.06 18633,8212.06C18736.2,8212.06 18831.2,8183.19 18906.3,8134.53Z"/>
            </g>
            <g transform="matrix(0.0816583,-0.224858,0.221775,0.0805387,-3002.29,4623.24)">
                <path d="M21761.6,6561.55C21761.2,6560.02 21760.5,6557.34 21759.7,6553.85C21746,6498.02 21780.2,6441.57 21836,6427.89C21891.9,6414.21 21948.3,6448.43 21962,6504.27C21963.8,6511.47 21964.2,6512.72 21964.3,6513.47C21965.8,6520.14 21966.1,6524.24 21966.3,6526.03C21971.5,6581.82 21940,6606.09 21932.3,6613.04C21911.4,6631.94 21887.5,6640.13 21861.5,6639.86C21851.2,6639.75 21794,6641.08 21766.6,6576.22C21766.3,6575.47 21763.8,6569.01 21763,6566.48C21762.5,6564.84 21762.1,6563.2 21761.6,6561.55Z"/>
            </g>
            <g transform="matrix(0.0816583,-0.224858,0.221775,0.0805387,-3098.79,4887.77)">
                <path d="M21761.6,6561.55C21761.2,6560.02 21760.5,6557.34 21759.7,6553.85C21746,6498.02 21780.2,6441.57 21836,6427.89C21891.9,6414.21 21948.3,6448.43 21962,6504.27C21963.8,6511.47 21964.2,6512.72 21964.3,6513.47C21965.8,6520.14 21966.1,6524.24 21966.3,6526.03C21971.5,6581.82 21940,6606.09 21932.3,6613.04C21911.4,6631.94 21887.5,6640.13 21861.5,6639.86C21851.2,6639.75 21794,6641.08 21766.6,6576.22C21766.3,6575.47 21763.8,6569.01 21763,6566.48C21762.5,6564.84 21762.1,6563.2 21761.6,6561.55Z"/>
            </g>
        </g>
    </g>
</svg>
