<?xml version="1.0" encoding="UTF-8" standalone="no"?>
<!DOCTYPE svg PUBLIC "-//W3C//DTD SVG 1.1//EN" "http://www.w3.org/Graphics/SVG/1.1/DTD/svg11.dtd">
<svg width="800" height="800" viewBox="0 0 338 800" version="1.1" xmlns="http://www.w3.org/2000/svg" xmlns:xlink="http://www.w3.org/1999/xlink" xml:space="preserve" xmlns:serif="http://www.serif.com/" style="fill-rule:evenodd;clip-rule:evenodd;stroke-linejoin:round;stroke-miterlimit:2;">
    <g transform="matrix(1,0,0,1,-231.417,6.25232e-13)">
        <g transform="matrix(0.240235,0,0,0.240235,-7641.13,-3666.87)">
            <g>
                <g>
                    <g transform="matrix(10.3896,0,0,12.7785,-20250.8,-9250.51)">
                        <path d="M5179.24,1975.95C5175.68,1976.51 5172.03,1976.68 5168.32,1976.8C5131.95,1977.9 5107.51,1952.4 5103.25,1918.86C5106.65,1918.32 5110.3,1918.4 5110.47,1918.4C5144.82,1918.4 5173.42,1943.26 5179.24,1975.95Z" style="fill:rgb(84,121,0);"/>
                    </g>
                    <g transform="matrix(7.45904,0,0,9.10983,-5232.86,-2026.87)">
                        <path d="M5179.24,1975.95C5175.68,1976.51 5172.03,1976.8 5168.32,1976.8C5133.97,1976.8 5105.37,1951.94 5099.55,1919.25C5103.11,1918.69 5106.76,1918.4 5110.47,1918.4C5144.82,1918.4 5173.42,1943.26 5179.24,1975.95Z" style="fill:rgb(136,197,0);"/>
                    </g>
                </g>
                <g transform="matrix(-1,0,0,1,66943.8,0)">
                    <g transform="matrix(10.3896,0,0,12.7785,-20250.8,-9250.51)">
                        <path d="M5179.24,1975.95C5175.68,1976.51 5172.03,1976.68 5168.32,1976.8C5131.95,1977.9 5107.51,1952.4 5103.25,1918.86C5106.65,1918.32 5110.3,1918.4 5110.47,1918.4C5144.82,1918.4 5173.42,1943.26 5179.24,1975.95Z" style="fill:rgb(84,121,0);"/>
                    </g>
                    <g transform="matrix(7.45904,0,0,9.10983,-5232.86,-2026.87)">
                        <path d="M5179.24,1975.95C5175.68,1976.51 5172.03,1976.8 5168.32,1976.8C5133.97,1976.8 5105.37,1951.94 5099.55,1919.25C5103.11,1918.69 5106.76,1918.4 5110.47,1918.4C5144.82,1918.4 5173.42,1943.26 5179.24,1975.95Z" style="fill:rgb(136,197,0);"/>
                    </g>
                </g>
            </g>
            <g transform="matrix(1,0,0,1,22.6053,0)">
                <g>
                    <g transform="matrix(0.218918,0,0,0.217265,30165.3,14795.7)">
                        <path d="M12454,9031.05C12332.1,8449.16 12259.2,7960.54 12259.1,7623.45C12258.7,6372.09 13487.6,5058.93 15000.8,5058.93C16513.9,5058.93 17742,6372.09 17742.4,7623.45C17742.7,8671.54 17041.1,11184.7 16348.1,13411.1C15672.3,15582.5 15449.6,17470.2 15004.6,17481.1C14559.6,17492 14348.8,15620.5 13678.2,13476.4L12934.8,10967.8C12823.3,10563.8 12720.3,10171.5 12629.9,9801.58C12656.6,9806.68 12684.1,9809.35 12712.3,9809.35L14152.5,9809.35C14392.2,9809.35 14586.7,9616 14586.7,9377.84C14586.7,9139.69 14392.2,8946.33 14152.5,8946.33L12712.3,8946.33C12615.6,8946.33 12526.2,8977.83 12454,9031.05Z" style="fill:rgb(255,135,0);"/>
                    </g>
                    <g transform="matrix(0.218918,0,0,0.217265,30165.3,14795.7)">
                        <path d="M15004.6,17481.1C14736.4,17487.7 16448.2,11153.9 16427.8,7566.21C16414.3,5201.54 14399.6,5058.93 15000.8,5058.93C16513.9,5058.93 17742,6372.09 17742.4,7623.45C17742.7,8671.54 17041.1,11184.7 16348.1,13411.1C15672.3,15582.5 15449.6,17470.2 15004.6,17481.1Z" style="fill:rgb(228,88,0);"/>
                    </g>
                    <g transform="matrix(1.1195,0,0,0.900019,7699.38,8042.59)">
                        <path d="M22503.3,9683.36C22517.4,9670.51 22534.9,9662.91 22553.8,9662.91L22835.4,9662.91C22882.3,9662.91 22920.3,9709.59 22920.3,9767.08C22920.3,9824.57 22882.3,9871.24 22835.4,9871.24L22553.8,9871.24C22548.3,9871.24 22542.9,9870.6 22537.7,9869.37C22524.8,9804.15 22513.2,9741.81 22503.3,9683.36Z" style="fill:rgb(228,88,0);"/>
                    </g>
                    <g transform="matrix(1.14788,0,0,0.900019,7503.88,8695.81)">
                        <path d="M22553.8,9871.24C22512.1,9871.24 22478.3,9824.57 22478.3,9767.08C22478.3,9709.59 22512.1,9662.91 22553.8,9662.91L22835.4,9662.91C22877.1,9662.91 22910.9,9709.59 22910.9,9767.08C22910.9,9824.57 22877.1,9871.24 22835.4,9871.24L22553.8,9871.24Z" style="fill:rgb(228,88,0);"/>
                    </g>
                    <g transform="matrix(0.91176,0,0,0.899259,13192.5,10480.2)">
                        <path d="M21761.6,6561.55C21761.2,6560.02 21760.5,6557.34 21759.7,6553.85C21746,6498.02 21780.2,6441.57 21836,6427.89C21891.9,6414.21 21948.3,6448.43 21962,6504.27C21963.8,6511.47 21964.2,6512.72 21964.3,6513.47C21965.8,6520.14 21966.1,6524.24 21966.3,6526.03C21971.5,6581.82 21940,6606.09 21932.3,6613.04C21911.4,6631.94 21887.5,6640.13 21861.5,6639.86C21851.2,6639.75 21794,6641.08 21766.6,6576.22C21766.3,6575.47 21763.8,6569.01 21763,6566.48C21762.5,6564.84 21762.1,6563.2 21761.6,6561.55Z" style="fill:rgb(228,88,0);"/>
                    </g>
                </g>
                <g transform="matrix(1.40287,0,0,0.900019,1919.37,7660.57)">
                    <path d="M22553.8,9871.24C22516.4,9871.24 22486,9824.57 22486,9767.08C22486,9709.59 22516.4,9662.91 22553.8,9662.91L22835.4,9662.91C22872.8,9662.91 22903.2,9709.59 22903.2,9767.08C22903.2,9824.57 22872.8,9871.24 22835.4,9871.24L22553.8,9871.24Z" style="fill:rgb(228,88,0);"/>
                </g>
            </g>
            <g transform="matrix(0.828118,0,0,0.816988,15367.8,10684.5)">
                <path d="M21756.7,6532.37L21756.7,6532.37L21756.7,6349.97L21966.9,6349.97L21966.9,6532.37L21966.7,6532.37C21969.1,6583.67 21939.7,6606.36 21932.3,6613.04C21911.4,6631.94 21887.5,6640.13 21861.5,6639.86C21851.2,6639.75 21794,6641.08 21766.6,6576.22C21766.3,6575.47 21763.8,6569.01 21763,6566.48C21762.5,6564.84 21762.1,6563.2 21761.6,6561.55C21761.2,6560.02 21760.5,6557.34 21759.7,6553.85C21757.9,6546.67 21756.9,6539.48 21756.7,6532.37Z" style="fill:rgb(84,121,0);"/>
            </g>
        </g>
    </g>
</svg>
