<?xml version="1.0" encoding="UTF-8" standalone="no"?>
<!DOCTYPE svg PUBLIC "-//W3C//DTD SVG 1.1//EN" "http://www.w3.org/Graphics/SVG/1.1/DTD/svg11.dtd">
<svg width="800" height="800" viewBox="0 0 351 800" version="1.1" xmlns="http://www.w3.org/2000/svg" xmlns:xlink="http://www.w3.org/1999/xlink" xml:space="preserve" xmlns:serif="http://www.serif.com/" style="fill-rule:evenodd;clip-rule:evenodd;stroke-linejoin:round;stroke-miterlimit:2;">
    <g transform="matrix(1,0,0,1,-224.662,0)">
        <g transform="matrix(0.209879,0,0,0.209879,-4895.64,-745.836)">
            <g transform="matrix(0.168382,0,0,0.223574,22797.8,3331.78)">
                <path d="M12934.8,10967.8C12546.4,9559.69 12259.3,8292.8 12259.1,7623.45C12258.7,6372.09 13487.6,5058.93 15000.8,5058.93C16513.9,5058.93 17742,6372.09 17742.4,7623.45C17742.7,8671.54 17041.1,11184.7 16348.1,13411.1C15672.3,15582.5 15449.6,17470.2 15004.6,17481.1C14559.6,17492 14348.8,15620.5 13678.2,13476.4" style="fill:rgb(183,176,124);"/>
            </g>
            <g transform="matrix(0.140255,0,0,0.223574,23083.8,3326.53)">
                <path d="M12934.8,10967.8C12546.4,9559.69 12259.3,8292.8 12259.1,7623.45C12258.7,6372.09 13487.6,5058.93 15000.8,5058.93C16513.9,5058.93 17742,6372.09 17742.4,7623.45C17742.7,8671.54 17041.1,11184.7 16348.1,13411.1C15672.3,15582.5 15449.6,17470.2 15004.6,17481.1C14559.6,17492 14348.8,15620.5 13678.2,13476.4" style="fill:rgb(245,231,179);"/>
            </g>
            <g transform="matrix(1.152,0,0,0.926153,-1290.19,-3571.59)">
                <path d="M22553.8,9871.24C22506.9,9871.24 22468.9,9824.57 22468.9,9767.08C22468.9,9709.59 22506.9,9662.91 22553.8,9662.91L22835.4,9662.91C22882.3,9662.91 22920.3,9709.59 22920.3,9767.08C22920.3,9824.57 22882.3,9871.24 22835.4,9871.24L22553.8,9871.24Z"/>
            </g>
            <g transform="matrix(1.4436,0,0,0.926153,-7155.89,-4003.52)">
                <path d="M22553.8,9871.24C22516.4,9871.24 22486,9824.57 22486,9767.08C22486,9709.59 22516.4,9662.91 22553.8,9662.91L22835.4,9662.91C22872.8,9662.91 22903.2,9709.59 22903.2,9767.08C22903.2,9824.57 22872.8,9871.24 22835.4,9871.24L22553.8,9871.24Z"/>
            </g>
            <g transform="matrix(1.18121,0,0,0.926153,-1369.12,-2912.34)">
                <path d="M22553.8,9871.24C22512.1,9871.24 22478.3,9824.57 22478.3,9767.08C22478.3,9709.59 22512.1,9662.91 22553.8,9662.91L22835.4,9662.91C22877.1,9662.91 22910.9,9709.59 22910.9,9767.08C22910.9,9824.57 22877.1,9871.24 22835.4,9871.24L22553.8,9871.24Z"/>
            </g>
            <g transform="matrix(0.233194,0,0,0.229996,21733.8,3248.38)">
                <path d="M15002.3,16756.7C15028,16689.4 15052.9,16618.5 15073.5,16549.3C15299,15793.7 15541.9,14591.3 15948,13286.5C16626.3,11107.2 17323.6,8649.56 17323.3,7623.58C17323,6569.62 16275.2,5478.03 15000.8,5478.03C13726.4,5478.03 12677.9,6569.42 12678.2,7623.32C12678.4,8270.68 12963.2,9494.51 13338.8,10856.4C13400.3,11079.3 13269.2,11310.3 13046.2,11371.8C12823.2,11433.3 12592.2,11302.2 12530.7,11079.2C12129.6,9624.87 11840.2,8314.92 11840,7623.58C11839.6,6174.71 13248.8,4639.82 15000.8,4639.82C16752.7,4639.82 18161,6174.51 18161.5,7623.32C18161.8,8693.54 17455.9,11262.3 16748.3,13535.6C16272.2,15065.3 16018.1,16454.7 15755.8,17154.7C15664.6,17397.9 15563.7,17574.6 15465.5,17681.9C15325.8,17834.5 15169.8,17896.3 15014.9,17900.1C14806.4,17905.2 14572.1,17796.8 14394.4,17479.3C14084.6,16925.3 13826.4,15354.1 13278.2,13601.5C13209.2,13380.8 13332.3,13145.5 13553.1,13076.4C13773.9,13007.4 14009.2,13130.5 14078.2,13351.3C14481.3,14640 14718.7,15830.3 14940.3,16574C14958.4,16634.9 14980,16697.2 15002.3,16756.7Z"/>
            </g>
            <g transform="matrix(0.938234,0,0,0.92537,4304.76,27.4356)">
                <path d="M21761.6,6561.55C21761.2,6560.02 21760.5,6557.34 21759.7,6553.85C21746,6498.02 21780.2,6441.57 21836,6427.89C21891.9,6414.21 21948.3,6448.43 21962,6504.27C21963.8,6511.47 21964.2,6512.72 21964.3,6513.47C21965.8,6520.14 21966.1,6524.24 21966.3,6526.03C21971.5,6581.82 21940,6606.09 21932.3,6613.04C21911.4,6631.94 21887.5,6640.13 21861.5,6639.86C21851.2,6639.75 21794,6641.08 21766.6,6576.22C21766.3,6575.47 21763.8,6569.01 21763,6566.48C21762.5,6564.84 21762.1,6563.2 21761.6,6561.55Z"/>
            </g>
            <g transform="matrix(8.12122,0,0,8.12122,-17568.5,-20457.5)">
                <g transform="matrix(-0.860485,0,0,0.848687,5628.87,2865.25)">
                    <g transform="matrix(-1.32178,0,0,1.43261,7250.42,-2594.89)">
                        <path d="M5179.24,1975.95C5175.68,1976.51 5172.03,1976.8 5168.32,1976.8C5133.97,1976.8 5105.37,1951.94 5099.55,1919.25C5103.11,1918.69 5106.76,1918.4 5110.47,1918.4C5144.82,1918.4 5173.42,1943.26 5179.24,1975.95Z" style="fill:rgb(136,197,0);"/>
                    </g>
                    <g transform="matrix(-1.52153,0,0,1.86671,8281.04,-3458.79)">
                        <path d="M5188.66,1974.83C5182.1,1938.02 5149.15,1910.64 5110.47,1910.64C5106.14,1910.64 5101.89,1910.98 5097.75,1911.63C5092.76,1912.42 5089.4,1916.26 5090.13,1920.37C5096.68,1957.18 5129.64,1984.56 5168.32,1984.56C5172.65,1984.56 5176.89,1984.22 5181.04,1983.57C5186.03,1982.78 5189.39,1978.94 5188.66,1974.83ZM5167.84,1969.04C5140.9,1968.82 5118.71,1950.64 5110.95,1926.16C5137.89,1926.38 5160.08,1944.56 5167.84,1969.04Z"/>
                    </g>
                </g>
                <g transform="matrix(0.860485,0,0,0.848687,4911.51,2865.08)">
                    <g transform="matrix(-1.32178,0,0,1.43261,7250.42,-2594.89)">
                        <path d="M5179.24,1975.95C5175.68,1976.51 5172.03,1976.8 5168.32,1976.8C5133.97,1976.8 5105.37,1951.94 5099.55,1919.25C5103.11,1918.69 5106.76,1918.4 5110.47,1918.4C5144.82,1918.4 5173.42,1943.26 5179.24,1975.95Z" style="fill:rgb(136,197,0);"/>
                    </g>
                    <g transform="matrix(-1.52153,0,0,1.86671,8281.04,-3458.79)">
                        <path d="M5188.66,1974.83C5182.1,1938.02 5149.15,1910.64 5110.47,1910.64C5106.14,1910.64 5101.89,1910.98 5097.75,1911.63C5092.76,1912.42 5089.4,1916.26 5090.13,1920.37C5096.68,1957.18 5129.64,1984.56 5168.32,1984.56C5172.65,1984.56 5176.89,1984.22 5181.04,1983.57C5186.03,1982.78 5189.39,1978.94 5188.66,1974.83ZM5167.84,1969.04C5140.9,1968.82 5118.71,1950.64 5110.95,1926.16C5137.89,1926.38 5160.08,1944.56 5167.84,1969.04Z"/>
                    </g>
                </g>
            </g>
        </g>
    </g>
</svg>
