<?xml version="1.0" encoding="UTF-8" standalone="no"?>
<!DOCTYPE svg PUBLIC "-//W3C//DTD SVG 1.1//EN" "http://www.w3.org/Graphics/SVG/1.1/DTD/svg11.dtd">
<svg width="800" height="800" viewBox="0 0 665 800" version="1.1" xmlns="http://www.w3.org/2000/svg" xmlns:xlink="http://www.w3.org/1999/xlink" xml:space="preserve" xmlns:serif="http://www.serif.com/" style="fill-rule:evenodd;clip-rule:evenodd;stroke-linejoin:round;stroke-miterlimit:2;">
    <g transform="matrix(1,0,0,1,-67.5094,-0.769303)">
        <g transform="matrix(0.160051,0.0337374,-0.0444008,0.210639,-2063.3,-839.187)">
            <path d="M15930.8,2362.16C15901.3,2149.38 15935.7,1876.31 16021.1,1788.88C16107,1700.84 16312.6,1662.81 16390.2,1788.88C16423.7,1843.27 16344.7,1977.15 16326.7,2136.81C16320.7,2190.18 16318.6,2218.09 16321.9,2272.39" style="fill:rgb(136,197,0);"/>
        </g>
        <g transform="matrix(0.2223,0,0,0.245206,-3161.75,-511.984)">
            <path d="M15478.4,3018.65C15354.6,3079.18 15034.6,3239.94 14964.8,3375.12C14909.1,3483.15 14900.2,3615.65 14914.6,3736.37C14931.3,3876.97 15004.1,4061.83 15065.4,4218.75C15144.2,4420.64 15302.9,4792.71 15387.8,4947.69C15431.7,5027.91 15518.6,5102.66 15574.7,5148.61C15617.8,5183.93 15668.5,5224.88 15724.2,5223.37C15781.9,5221.82 15870.6,5143.94 15920.5,5139.27C15959.3,5135.62 15988.2,5178.2 16023.3,5195.34C16058.3,5212.47 16091.8,5245.02 16130.7,5242.06C16182.1,5238.17 16260.8,5170.66 16331.7,5171.97C16415.8,5173.53 16542.7,5284.12 16635.4,5251.41C16728.1,5218.7 16825.3,5083.55 16887.7,4975.72C16996.8,4787.26 17198.5,4341.8 17289.6,4120.62C17352.3,3968.47 17432.9,3785.75 17434.4,3648.68C17435.8,3523.45 17363.3,3405.69 17298.9,3298.23C17233.2,3188.52 17108.1,3046.89 17040.3,2990.4C17001.5,2958.07 16942.4,2962.54 16892,2959.3C16836.2,2955.71 16749.2,2962.49 16705.4,2968.87C16678.4,2972.79 16655.1,3004.87 16628.8,2997.58C16564.2,2979.63 16399.9,2887.92 16317.8,2861.21C16259.7,2842.3 16196.7,2830.3 16136,2837.28C16066.6,2845.26 15972.9,2879.95 15901.5,2909.06C15833.8,2936.67 15780.8,3009.83 15707.7,3011.93C15613,3014.64 15593.5,2962.38 15478.4,3018.65Z" style="fill:rgb(139,0,0);"/>
        </g>
        <g transform="matrix(0.191682,0,0,0.245206,-2704.24,-510.474)">
            <path d="M15430.5,3022.49C15375.8,3049.27 15263.5,3091.55 15192.3,3145.49C15114.7,3204.26 15003.7,3299.73 14964.8,3375.12C14909.1,3483.15 14900.2,3615.65 14914.6,3736.37C14931.3,3876.97 15004.1,4061.83 15065.4,4218.75C15144.2,4420.64 15302.9,4792.71 15387.8,4947.69C15431.7,5027.91 15518.6,5102.66 15574.7,5148.61C15617.8,5183.93 15668.5,5224.88 15724.2,5223.37C15781.9,5221.82 15870.6,5143.94 15920.5,5139.27C15959.3,5135.62 15988.2,5178.2 16023.3,5195.34C16058.3,5212.47 16091.8,5245.02 16130.7,5242.06C16182.1,5238.17 16260.8,5170.66 16331.7,5171.97C16415.8,5173.53 16563.8,5195.9 16656.4,5163.19C16749.1,5130.48 17154.5,4425.89 17245.7,4204.72C17308.3,4052.57 17469,3628.78 17415.3,3419.97C17366.1,3228.45 17035.4,3088.75 16967.6,3032.26C16928.8,2999.93 16749.2,2962.49 16705.4,2968.87C16678.4,2972.79 16655.1,3004.87 16628.8,2997.58C16564.2,2979.63 16399.9,2887.92 16317.8,2861.21C16259.7,2842.3 16196.7,2830.3 16136,2837.28C16066.6,2845.26 15972.9,2879.95 15901.5,2909.06C15833.8,2936.67 15780.8,3009.83 15707.7,3011.93C15613,3014.64 15545.6,2966.22 15430.5,3022.49Z" style="fill:rgb(196,9,9);"/>
        </g>
        <g transform="matrix(0.204019,-0.109515,0.108013,0.201222,-5010.99,1662.17)">
            <path d="M21761.6,6561.55C21761.2,6560.02 21760.5,6557.34 21759.7,6553.85C21746,6498.02 21780.2,6441.57 21836,6427.89C21891.9,6414.21 21948.3,6448.43 21962,6504.27C21963.8,6511.47 21964.2,6512.72 21964.3,6513.47C21965.8,6520.14 21966.1,6524.24 21966.3,6526.03C21971.5,6581.82 21940,6606.09 21932.3,6613.04C21911.4,6631.94 21887.5,6640.13 21861.5,6639.86C21851.2,6639.75 21794,6641.08 21766.6,6576.22C21766.3,6575.47 21763.8,6569.01 21763,6566.48C21762.5,6564.84 21762.1,6563.2 21761.6,6561.55Z"/>
        </g>
        <g transform="matrix(0.221507,0.0466917,-0.053516,0.253881,-3054.63,-1160.77)">
            <path d="M15556.1,2619.54C15502,2619.78 15448.5,2624.57 15395.4,2634.33C15371,2638.82 15347.5,2655.24 15323.2,2675.97C15287.9,2706.08 15254.4,2746.37 15224.5,2792.56C15131.6,2935.77 15070.7,3135.66 15123.1,3289.25C15156.3,3386.88 15245.3,3532.62 15356.7,3690.82C15389.5,3737.41 15372.7,3798.48 15319.3,3827.1C15265.9,3855.72 15195.9,3841.12 15163.1,3794.52C15039,3618.18 14942.4,3454.57 14905.3,3345.73C14836.9,3145.01 14905.4,2882.13 15026.8,2694.97C15117.6,2554.92 15240.9,2460.22 15348.6,2440.42C15474.7,2417.23 15602.9,2415.64 15733.3,2433.15C15756.9,2413.08 15781.1,2393.94 15805.6,2375.88C15805.6,2375.71 15805.6,2375.55 15805.6,2375.39C15783,2212.76 15795.4,2017.91 15836.4,1882.87C15858.3,1810.58 15890.1,1753.26 15925,1717.49C15987.9,1653.03 16094,1605.77 16199.2,1598.81C16319.6,1590.85 16436.3,1631.12 16501.4,1736.78C16521.7,1769.82 16530.3,1816.69 16519.2,1875.76C16506.6,1942.12 16464.6,2038.62 16452.3,2147.56C16449.2,2175.56 16447.2,2195.57 16446.7,2217.33C16506.2,2230.98 16568.4,2250.15 16630.6,2274.32C16732.8,2221.06 16840.8,2183.02 16955.4,2161.94C17063.1,2142.14 17219.7,2185.36 17367.6,2281.51C17565.2,2410 17749.5,2626.4 17779.8,2834.13C17817.7,3094.37 17692.7,3742.35 17559.4,4138.45C17517.5,4262.94 17474.2,4363.4 17435.9,4422.4C17409.3,4463.37 17380.8,4489.64 17357.2,4503.44C17238.7,4572.77 17034.8,4581.29 16875.9,4570.47C16825.7,4614.64 16770.2,4641.66 16712,4651.74C16651.2,4662.28 16584.2,4654.31 16514,4626.22C16375.9,4688.91 16197.6,4744.81 16064.2,4724.2C16031.4,4719.12 15982.7,4699.17 15927.4,4658.87C15842.3,4596.91 15721.7,4478.98 15593.2,4335.16C15554.7,4292.03 15563.5,4229.72 15612.9,4196.09C15662.4,4162.47 15733.8,4170.19 15772.3,4213.31C15872.8,4325.81 15967.3,4421.51 16041.2,4482.11C16066.8,4503.09 16102.5,4525.2 16110.2,4529.95C16169.8,4537.25 16240,4519.79 16307.5,4494.47C16271.3,4463.86 16234.7,4429.34 16198.1,4391.47C15842.7,4023.84 15470,3331.35 15416.1,3066.19C15387.1,2923.11 15448.2,2762.89 15556.1,2619.54ZM16047,2237.34C16097,2216.88 16144.4,2203.08 16186.6,2197.18C16189.3,2196.8 16192.1,2196.45 16194.9,2196.12C16195.9,2175.03 16198.1,2153.55 16201.2,2126.06C16210.8,2040.01 16236.4,1960.8 16255.6,1895.87C16262,1874.21 16268,1844.99 16270.7,1831.09C16257.1,1819.31 16237.2,1817.12 16218.3,1818.37C16179.8,1820.91 16140.1,1836.69 16117.1,1860.27C16093,1884.93 16079.9,1932.14 16067.9,1987.57C16051.7,2062.41 16044.5,2151.07 16047,2237.34ZM16865.8,2392.49C17042.1,2504.05 17181.3,2653.45 17213.4,2811.45C17267.2,3076.2 17231.3,3811.41 17069.1,4252.08C17052.5,4296.97 17034.6,4338.96 17015.3,4377.45C17047.2,4377.12 17079.1,4375.43 17109.9,4371.81C17153,4366.74 17193.7,4358.62 17225,4342.04C17232.7,4328.06 17301,4202.99 17341.5,4082.64C17466.6,3710.83 17590,3103.41 17554.4,2859.12C17531.3,2700.17 17383.1,2538.73 17231.9,2440.41C17183.1,2408.7 17133.8,2383.63 17087.6,2368.52C17055.7,2358.12 17026.7,2351.35 17002.2,2355.85C16955.4,2364.47 16909.9,2376.78 16865.8,2392.49ZM15639.8,3031.61C15689.9,3278.48 16040.8,3921.44 16371.7,4263.7C16437.4,4331.67 16501.7,4387.38 16563,4423.31C16601.7,4445.97 16635.6,4462.96 16667.8,4457.38C16699.9,4451.82 16723.9,4426.03 16749.2,4393.56C16789.1,4342.22 16823,4272.48 16852.8,4191.49C17004.3,3779.88 17040,3093.32 16989.7,2846.03C16963,2714.19 16822.7,2598.61 16667.9,2515.17C16510.9,2430.52 16334.7,2377.15 16222.5,2392.85C16109.5,2408.66 15953.9,2508.07 15829.5,2632.55C15708.8,2753.25 15613,2899.82 15639.8,3031.61Z"/>
        </g>
        <g transform="matrix(0.225675,0,0,0.225675,-3251.11,-444.304)">
            <path d="M15912.8,3199.35C15964,3161.17 16036.6,3171.75 16074.8,3222.96C16113,3274.18 16102.4,3346.75 16051.2,3384.93C16003.5,3420.51 15954.3,3449.73 15929.3,3505.41C15905.8,3557.91 15904,3632.02 15927.1,3699.58C15947.7,3760.03 15915.4,3825.87 15854.9,3846.51C15794.5,3867.15 15728.6,3834.83 15708,3774.37C15664.8,3647.82 15674,3509.12 15718.1,3410.8C15759.9,3317.38 15832.8,3259.03 15912.8,3199.35Z"/>
        </g>
    </g>
</svg>
