<?xml version="1.0" encoding="UTF-8" standalone="no"?>
<!DOCTYPE svg PUBLIC "-//W3C//DTD SVG 1.1//EN" "http://www.w3.org/Graphics/SVG/1.1/DTD/svg11.dtd">
<svg width="800" height="800" viewBox="0 0 392 800" version="1.1" xmlns="http://www.w3.org/2000/svg" xmlns:xlink="http://www.w3.org/1999/xlink" xml:space="preserve" xmlns:serif="http://www.serif.com/" style="fill-rule:evenodd;clip-rule:evenodd;stroke-linejoin:round;stroke-miterlimit:2;">
    <g transform="matrix(1,0,0,1,-204.343,0)">
        <g>
            <path d="M292.539,390.201C292.539,390.201 335.835,440.618 347.618,454.777C353.092,461.354 359.14,467.638 363.238,475.151C368.872,485.479 377.202,502.57 381.421,516.747C385.608,530.819 388.552,560.212 388.552,560.212L399.757,620.654L492.458,446.118L326.072,390.769L292.539,390.201Z" style="fill:white;"/>
            <g transform="matrix(0.234201,0,0,0.234201,-4924.8,-836.556)">
                <g transform="matrix(0.850688,0,0,0.855855,3466.78,680.998)">
                    <path d="M22523.2,5599.09C22373.3,5517.28 22055.5,5410.09 22055.5,5108.28C22055.5,4731.15 22361.6,4424.97 22738.8,4424.97C23115.9,4424.97 23422.1,4731.15 23422.1,5108.28C23422.1,5410.09 23104.2,5517.28 22954.4,5599.09C22828.2,5667.97 22649.3,5667.97 22523.2,5599.09Z" style="fill:rgb(161,0,75);"/>
                </g>
                <g transform="matrix(0.675984,0,0,0.812184,7317.2,925.032)">
                    <path d="M22640,5599.09C22470.7,5517.28 22055.5,5410.09 22055.5,5108.28C22055.5,4731.15 22361.6,4473.16 22738.8,4473.16C23115.9,4473.16 23422.1,4731.15 23422.1,5108.28C23422.1,5410.09 23201.6,5517.28 23071.2,5599.09C22949.5,5675.49 22769.4,5661.62 22640,5599.09Z" style="fill:rgb(221,0,103);"/>
                </g>
                <path d="M22353.5,5439.86C22395,5479.69 22396.3,5545.68 22356.5,5587.14C22316.7,5628.61 22250.7,5629.93 22209.2,5590.11C22073.4,5459.69 21951.3,5299.77 21951.3,5108.28C21951.3,4673.66 22304.1,4320.81 22738.8,4320.81C23173.4,4320.81 23526.2,4673.66 23526.2,5108.28C23526.2,5291.48 23420.8,5417.01 23293.3,5530.3C23201,5612.42 23093.7,5684.78 23051.6,5794.24C22940.2,6083.56 22842.2,6896.32 22842.2,6896.32C22835.8,6948.56 22791.4,6987.83 22738.8,6987.83C22686.1,6987.83 22641.8,6948.56 22635.4,6896.32C22635.4,6896.32 22572.8,6384.18 22491,6024.82C22478.2,5968.77 22513.4,5912.9 22569.4,5900.14C22625.5,5887.38 22681.4,5922.53 22694.1,5978.59C22709.9,6047.98 22725,6122.93 22739.1,6198.88C22774,6011.52 22814.8,5829.35 22857.2,5719.41C22910.8,5580.09 23037.3,5479.13 23154.9,5374.6C23237.5,5301.22 23317.9,5226.96 23317.9,5108.28C23317.9,4788.64 23058.4,4529.14 22738.8,4529.14C22419.1,4529.14 22159.6,4788.64 22159.6,5108.28C22159.6,5242.87 22258.1,5348.2 22353.5,5439.86Z"/>
                <g transform="matrix(1.152,0,0,0.926153,-3828.35,-3985.48)">
                    <path d="M22553.8,9871.24C22506.9,9871.24 22468.9,9824.57 22468.9,9767.08C22468.9,9709.59 22506.9,9662.91 22553.8,9662.91L22835.4,9662.91C22882.3,9662.91 22920.3,9709.59 22920.3,9767.08C22920.3,9824.57 22882.3,9871.24 22835.4,9871.24L22553.8,9871.24Z"/>
                </g>
                <g transform="matrix(1.4436,0,0,0.926153,-9846.41,-3624.45)">
                    <path d="M22553.8,9871.24C22516.4,9871.24 22486,9824.57 22486,9767.08C22486,9709.59 22516.4,9662.91 22553.8,9662.91L22835.4,9662.91C22872.8,9662.91 22903.2,9709.59 22903.2,9767.08C22903.2,9824.57 22872.8,9871.24 22835.4,9871.24L22553.8,9871.24Z"/>
                </g>
                <g transform="matrix(0.938234,0,0,0.92537,1958.1,-300.689)">
                    <path d="M21761.6,6561.55C21761.2,6560.02 21760.5,6557.34 21759.7,6553.85C21746,6498.02 21780.2,6441.57 21836,6427.89C21891.9,6414.21 21948.3,6448.43 21962,6504.27C21963.8,6511.47 21964.2,6512.72 21964.3,6513.47C21965.8,6520.14 21966.1,6524.24 21966.3,6526.03C21971.5,6581.82 21940,6606.09 21932.3,6613.04C21911.4,6631.94 21887.5,6640.13 21861.5,6639.86C21851.2,6639.75 21794,6641.08 21766.6,6576.22C21766.3,6575.47 21763.8,6569.01 21763,6566.48C21762.5,6564.84 21762.1,6563.2 21761.6,6561.55Z"/>
                </g>
                <g transform="matrix(8.12122,0,0,8.12122,-20064.4,-20439.2)">
                    <g transform="matrix(-0.860485,0,0,0.848687,5628.87,2865.25)">
                        <g transform="matrix(-1.32178,0,0,1.43261,7250.42,-2594.89)">
                            <path d="M5179.24,1975.95C5175.68,1976.51 5172.03,1976.8 5168.32,1976.8C5133.97,1976.8 5105.37,1951.94 5099.55,1919.25C5103.11,1918.69 5106.76,1918.4 5110.47,1918.4C5144.82,1918.4 5173.42,1943.26 5179.24,1975.95Z" style="fill:rgb(136,197,0);"/>
                        </g>
                        <g transform="matrix(-1.52153,0,0,1.86671,8281.04,-3458.79)">
                            <path d="M5188.66,1974.83C5182.1,1938.02 5149.15,1910.64 5110.47,1910.64C5106.14,1910.64 5101.89,1910.98 5097.75,1911.63C5092.76,1912.42 5089.4,1916.26 5090.13,1920.37C5096.68,1957.18 5129.64,1984.56 5168.32,1984.56C5172.65,1984.56 5176.89,1984.22 5181.04,1983.57C5186.03,1982.78 5189.39,1978.94 5188.66,1974.83ZM5167.84,1969.04C5140.9,1968.82 5118.71,1950.64 5110.95,1926.16C5137.89,1926.38 5160.08,1944.56 5167.84,1969.04Z"/>
                        </g>
                    </g>
                    <g transform="matrix(0.860485,0,0,0.848687,4911.51,2865.08)">
                        <g transform="matrix(-1.32178,0,0,1.43261,7250.42,-2594.89)">
                            <path d="M5179.24,1975.95C5175.68,1976.51 5172.03,1976.8 5168.32,1976.8C5133.97,1976.8 5105.37,1951.94 5099.55,1919.25C5103.11,1918.69 5106.76,1918.4 5110.47,1918.4C5144.82,1918.4 5173.42,1943.26 5179.24,1975.95Z" style="fill:rgb(136,197,0);"/>
                        </g>
                        <g transform="matrix(-1.52153,0,0,1.86671,8281.04,-3458.79)">
                            <path d="M5188.66,1974.83C5182.1,1938.02 5149.15,1910.64 5110.47,1910.64C5106.14,1910.64 5101.89,1910.98 5097.75,1911.63C5092.76,1912.42 5089.4,1916.26 5090.13,1920.37C5096.68,1957.18 5129.64,1984.56 5168.32,1984.56C5172.65,1984.56 5176.89,1984.22 5181.04,1983.57C5186.03,1982.78 5189.39,1978.94 5188.66,1974.83ZM5167.84,1969.04C5140.9,1968.82 5118.71,1950.64 5110.95,1926.16C5137.89,1926.38 5160.08,1944.56 5167.84,1969.04Z"/>
                        </g>
                    </g>
                </g>
            </g>
        </g>
    </g>
</svg>
