<?xml version="1.0" standalone="no"?>
<!DOCTYPE svg PUBLIC "-//W3C//DTD SVG 20010904//EN"
 "http://www.w3.org/TR/2001/REC-SVG-20010904/DTD/svg10.dtd">
<svg version="1.0" xmlns="http://www.w3.org/2000/svg"
 width="800px" height="800px" viewBox="0 0 512.000000 512.000000"
 preserveAspectRatio="xMidYMid meet">

<g transform="translate(0.000000,512.000000) scale(0.100000,-0.100000)"
fill="#000000" stroke="none">
<path d="M2506 3905 c-45 -16 -90 -56 -105 -94 -6 -14 -44 -309 -86 -656 -41
-346 -82 -688 -91 -760 -8 -71 -26 -193 -40 -270 -96 -551 -95 -546 -101
-1190 l-5 -560 27 53 c50 99 118 132 269 132 l105 0 3 455 c3 453 3 455 25
476 29 29 77 29 106 0 22 -21 22 -23 25 -476 l3 -455 105 0 c151 0 219 -34
268 -132 l26 -52 0 445 c0 624 -12 793 -89 1219 -22 118 -46 276 -55 350 -9
74 -41 340 -71 590 -30 250 -64 536 -75 634 -12 99 -27 191 -35 205 -19 36
-54 67 -97 86 -45 18 -61 18 -112 0z m108 -2015 c26 -25 25 -76 -2 -102 -45
-45 -125 -13 -125 51 0 70 75 100 127 51z"/>
</g>
</svg>
