<?xml version="1.0" encoding="iso-8859-1"?>
<!-- Uploaded to: SVG Repo, www.svgrepo.com, Generator: SVG Repo Mixer Tools -->
<svg height="800px" width="800px" version="1.1" id="Layer_1" xmlns="http://www.w3.org/2000/svg" xmlns:xlink="http://www.w3.org/1999/xlink" 
	 viewBox="0 0 512 512" xml:space="preserve">
<path style="fill:#8FB84A;" d="M353.496,43.202l-32.331,76.222c-18.869-4.402-40.528-6.772-65.165-6.772s-46.296,2.37-65.165,6.772
	l-32.331-76.222l62.467,21.601L256,11.676l35.029,53.127L353.496,43.202z"/>
<path style="fill:#DF4D60;" d="M321.164,119.424c-18.869-4.402-40.528-6.772-65.165-6.772s-46.296,2.37-65.165,6.772
	c-89.451,20.842-116.038,87.151-97.706,161.832c11.594,47.242,42.373,102.015,75.23,144.971s67.768,74.097,87.641,74.097
	c39.734,0,139.682-124.573,162.871-219.068C437.202,206.575,410.615,140.266,321.164,119.424z"/>
<path d="M321.16,131.104c-1.52,0-3.066-0.299-4.554-0.931c-5.936-2.517-8.708-9.371-6.19-15.309l22.076-52.044l-37.647,13.018
	c-5.045,1.741-10.628-0.155-13.564-4.607L256,32.888l-25.28,38.342c-2.938,4.454-8.519,6.349-13.564,4.607L179.508,62.82
	l22.076,52.044c2.519,5.937-0.253,12.791-6.19,15.309c-5.935,2.514-12.79-0.255-15.309-6.19l-32.331-76.222
	c-1.802-4.248-0.933-9.158,2.216-12.53c3.149-3.371,7.991-4.572,12.349-3.065l53.896,18.638l30.036-45.556
	C248.412,1.972,252.075,0,256,0s7.587,1.972,9.748,5.248l30.036,45.556l53.896-18.637c4.362-1.509,9.201-0.307,12.349,3.065
	c3.149,3.373,4.018,8.283,2.216,12.53l-32.331,76.222C330.026,128.432,325.705,131.104,321.16,131.104z"/>
<path d="M256,512c-33.156,0-78.821-55.023-96.916-78.68c-37.486-49.01-66.381-104.816-77.295-149.282
	c-10.813-44.053-6.478-83.711,12.538-114.686c18.745-30.532,50.323-51.157,93.859-61.301c20.124-4.695,42.941-7.077,67.814-7.077
	c6.449,0,11.676,5.229,11.676,11.676c0,6.448-5.227,11.676-11.676,11.676c-23.09,0-44.122,2.175-62.512,6.466
	c-37.236,8.677-63.903,25.76-79.26,50.776c-15.676,25.536-19.051,59.043-9.759,96.901c10.185,41.497,37.535,94.081,73.164,140.662
	c34.907,45.636,65.847,69.514,78.367,69.514c2.508,0,12.293-1.403,32.886-19.462c15.429-13.529,32.331-32.393,48.88-54.553
	c3.858-5.167,11.174-6.228,16.342-2.369c5.167,3.859,6.227,11.175,2.369,16.342C341.866,448.169,291.444,512,256,512z"/>
<path d="M366.328,405.755c-2.187,0-4.398-0.613-6.366-1.896c-5.401-3.523-6.926-10.756-3.405-16.159
	c1.229-1.885,2.447-3.782,3.655-5.689c3.45-5.449,10.664-7.07,16.112-3.618c5.448,3.449,7.068,10.664,3.618,16.111
	c-1.263,1.995-2.537,3.979-3.823,5.951C373.88,403.888,370.141,405.755,366.328,405.755z"/>
<path d="M384.61,375.494c-1.923,0-3.873-0.476-5.672-1.479c-5.634-3.139-7.656-10.249-4.516-15.883
	c15.854-28.451,27.302-55.998,33.109-79.661c9.292-37.858,5.917-71.365-9.759-96.9c-15.359-25.017-42.025-42.101-79.257-50.775
	c-18.393-4.292-39.426-6.467-62.515-6.467c-6.449,0-11.676-5.229-11.676-11.676c0-6.448,5.227-11.676,11.676-11.676
	c24.873,0,47.69,2.381,67.818,7.078c43.532,10.143,75.112,30.768,93.857,61.3c19.016,30.973,23.351,70.631,12.537,114.686
	c-6.297,25.66-18.535,55.211-35.389,85.459C392.684,373.331,388.709,375.494,384.61,375.494z"/>
<path d="M134.703,217.107c-2.725,0-5.463-0.949-7.677-2.883c-4.857-4.242-5.355-11.618-1.113-16.475l19.523-22.349
	c4.242-4.856,11.619-5.354,16.475-1.112c4.857,4.242,5.355,11.618,1.113,16.475l-19.523,22.349
	C141.192,215.755,137.956,217.107,134.703,217.107z"/>
<path d="M199.447,268.458c-2.728,0-5.466-0.949-7.679-2.885c-4.855-4.244-5.351-11.62-1.107-16.475l19.534-22.348
	c4.245-4.856,11.621-5.349,16.475-1.107c4.855,4.244,5.351,11.62,1.107,16.475l-19.534,22.348
	C205.934,267.108,202.699,268.458,199.447,268.458z"/>
<path d="M154.541,318.479c-2.725,0-5.463-0.949-7.677-2.883c-4.856-4.243-5.354-11.619-1.112-16.475l19.523-22.348
	c4.243-4.855,11.619-5.355,16.475-1.112c4.856,4.243,5.354,11.619,1.112,16.475l-19.523,22.348
	C161.03,317.127,157.794,318.479,154.541,318.479z"/>
<path d="M186.709,216.243c-2.725,0-5.463-0.949-7.677-2.883c-4.857-4.242-5.355-11.618-1.113-16.475l19.523-22.349
	c4.242-4.856,11.619-5.354,16.475-1.112c4.857,4.242,5.355,11.618,1.113,16.475l-19.523,22.349
	C193.198,214.891,189.962,216.243,186.709,216.243z"/>
<path d="M143.39,263.554c-2.725,0-5.463-0.949-7.677-2.883c-4.856-4.243-5.354-11.619-1.112-16.475l19.523-22.348
	c4.242-4.856,11.618-5.354,16.475-1.112c4.856,4.243,5.354,11.619,1.112,16.475l-19.523,22.348
	C149.88,262.202,146.643,263.554,143.39,263.554z"/>
</svg>