<?xml version="1.0" encoding="UTF-8" standalone="no"?>
<!DOCTYPE svg PUBLIC "-//W3C//DTD SVG 1.1//EN" "http://www.w3.org/Graphics/SVG/1.1/DTD/svg11.dtd">
<svg width="800" height="800" viewBox="0 0 743 800" version="1.1" xmlns="http://www.w3.org/2000/svg" xmlns:xlink="http://www.w3.org/1999/xlink" xml:space="preserve" xmlns:serif="http://www.serif.com/" style="fill-rule:evenodd;clip-rule:evenodd;stroke-linecap:round;stroke-linejoin:round;stroke-miterlimit:1.5;">
    <g transform="matrix(1,0,0,1,-28.8081,0)">
        <g transform="matrix(0.289076,0,0,0.289076,-5355.8,-1173.14)">
            <g transform="matrix(0.84589,0,0,0.95395,7997.95,-3159.49)">
                <path d="M14201.9,8314.01C14853.1,8314.01 15383.2,8771.03 15383.2,9422.23C15383.2,10073.4 14854.5,10288.3 14203.3,10288.3C13552.1,10288.3 13023.4,10073.4 13023.4,9422.23C13023.4,8771.03 13550.7,8314.01 14201.9,8314.01Z" style="fill:rgb(173,34,0);"/>
            </g>
            <g transform="matrix(0.761611,0,0,0.95395,9095.55,-3159.49)">
                <path d="M14201.9,8314.01C14853.1,8314.01 15383.2,8771.03 15383.2,9422.23C15383.2,10073.4 14854.5,10288.3 14203.3,10288.3C13552.1,10288.3 13023.4,10073.4 13023.4,9422.23C13023.4,8771.03 13550.7,8314.01 14201.9,8314.01Z" style="fill:rgb(255,61,13);"/>
            </g>
            <g transform="matrix(1,0,0,1,5707.69,-3566.81)">
                <path d="M13192.9,9752.69C13217,9804.85 13194.3,9866.83 13142.2,9891C13090,9915.18 13028,9892.45 13003.8,9840.29C12949.7,9723.47 12919.2,9585.15 12919.2,9422.23C12919.2,8711.75 13491.4,8209.84 14201.9,8209.84C14912.3,8209.84 15487.4,8711.83 15487.4,9422.23C15487.4,10138.3 14919.4,10392.5 14203.3,10392.5C13991.3,10392.5 13791.7,10370.3 13617,10320.1C13561.8,10304.2 13529.8,10246.4 13545.7,10191.2C13561.6,10135.9 13619.4,10104 13674.6,10119.9C13832.1,10165.1 14012.2,10184.1 14203.3,10184.1C14789.8,10184.1 15279,10008.7 15279,9422.23C15279,8830.22 14793.9,8418.17 14201.9,8418.17C13610,8418.17 13127.6,8830.3 13127.6,9422.23C13127.6,9550.9 13150.1,9660.43 13192.9,9752.69Z"/>
            </g>
            <g transform="matrix(0.867482,-0.867482,0.707107,0.707107,-6683.78,19001)">
                <path d="M22609.7,9662.91L22609.7,9594.32C22609.7,9536.83 22647.8,9490.15 22694.6,9490.15C22741.5,9490.15 22779.5,9536.83 22779.5,9594.32L22779.5,9662.91L22835.4,9662.91C22882.3,9662.91 22920.3,9709.59 22920.3,9767.08C22920.3,9824.57 22882.3,9871.24 22835.4,9871.24L22779.5,9871.24L22779.5,9939.84C22779.5,9997.33 22741.5,10044 22694.6,10044C22647.8,10044 22609.7,9997.33 22609.7,9939.84L22609.7,9871.24L22553.8,9871.24C22506.9,9871.24 22468.9,9824.57 22468.9,9767.08C22468.9,9709.59 22506.9,9662.91 22553.8,9662.91L22609.7,9662.91Z"/>
            </g>
            <g transform="matrix(-0.484054,1.48344,-1.20919,-0.394565,41969.8,-24173.8)">
                <path d="M22530.1,9843.65C22495.7,9827.61 22478.3,9780.28 22491.4,9738.02C22504.5,9695.76 22543,9674.47 22577.5,9690.51C22699.9,9747.5 22780.7,9707.04 22808.7,9692.02C22842.5,9673.94 22881.9,9692.9 22896.6,9734.32C22911.4,9775.75 22895.9,9824.06 22862.1,9842.14C22821.8,9863.7 22705.9,9925.47 22530.1,9843.65Z"/>
            </g>
            <g transform="matrix(0.826666,-0.443742,0.437658,0.815331,-1894.19,10885.7)">
                <path d="M21761.6,6561.55C21761.2,6560.02 21760.5,6557.34 21759.7,6553.85C21746,6498.02 21780.2,6441.57 21836,6427.89C21891.9,6414.21 21948.3,6448.43 21962,6504.27C21963.8,6511.47 21964.2,6512.72 21964.3,6513.47C21965.8,6520.14 21966.1,6524.24 21966.3,6526.03C21971.5,6581.82 21940,6606.09 21932.3,6613.04C21911.4,6631.94 21887.5,6640.13 21861.5,6639.86C21851.2,6639.75 21794,6641.08 21766.6,6576.22C21766.3,6575.47 21763.8,6569.01 21763,6566.48C21762.5,6564.84 21762.1,6563.2 21761.6,6561.55Z"/>
            </g>
            <g transform="matrix(8.12122,0,0,8.12122,-22891.6,-19952.9)">
                <g transform="matrix(-0.860485,0,0,0.848687,5628.87,2865.25)">
                    <g transform="matrix(-1.32178,0,0,1.43261,7250.42,-2594.89)">
                        <path d="M5179.24,1975.95C5175.68,1976.51 5172.03,1976.8 5168.32,1976.8C5133.97,1976.8 5105.37,1951.94 5099.55,1919.25C5103.11,1918.69 5106.76,1918.4 5110.47,1918.4C5144.82,1918.4 5173.42,1943.26 5179.24,1975.95Z" style="fill:rgb(136,197,0);"/>
                    </g>
                    <g transform="matrix(-1.52153,0,0,1.86671,8281.04,-3458.79)">
                        <path d="M5188.66,1974.83C5182.1,1938.02 5149.15,1910.64 5110.47,1910.64C5106.14,1910.64 5101.89,1910.98 5097.75,1911.63C5092.76,1912.42 5089.4,1916.26 5090.13,1920.37C5096.68,1957.18 5129.64,1984.56 5168.32,1984.56C5172.65,1984.56 5176.89,1984.22 5181.04,1983.57C5186.03,1982.78 5189.39,1978.94 5188.66,1974.83ZM5167.84,1969.04C5140.9,1968.82 5118.71,1950.64 5110.95,1926.16C5137.89,1926.38 5160.08,1944.56 5167.84,1969.04Z"/>
                    </g>
                </g>
                <g transform="matrix(0.860485,0,0,0.848687,4911.51,2865.08)">
                    <g transform="matrix(-1.32178,0,0,1.43261,7250.42,-2594.89)">
                        <path d="M5179.24,1975.95C5175.68,1976.51 5172.03,1976.8 5168.32,1976.8C5133.97,1976.8 5105.37,1951.94 5099.55,1919.25C5103.11,1918.69 5106.76,1918.4 5110.47,1918.4C5144.82,1918.4 5173.42,1943.26 5179.24,1975.95Z" style="fill:rgb(136,197,0);"/>
                    </g>
                    <g transform="matrix(-1.52153,0,0,1.86671,8281.04,-3458.79)">
                        <path d="M5188.66,1974.83C5182.1,1938.02 5149.15,1910.64 5110.47,1910.64C5106.14,1910.64 5101.89,1910.98 5097.75,1911.63C5092.76,1912.42 5089.4,1916.26 5090.13,1920.37C5096.68,1957.18 5129.64,1984.56 5168.32,1984.56C5172.65,1984.56 5176.89,1984.22 5181.04,1983.57C5186.03,1982.78 5189.39,1978.94 5188.66,1974.83ZM5167.84,1969.04C5140.9,1968.82 5118.71,1950.64 5110.95,1926.16C5137.89,1926.38 5160.08,1944.56 5167.84,1969.04Z"/>
                    </g>
                </g>
            </g>
            <g transform="matrix(0.998452,-0.0556222,0.0443392,0.795916,-214.063,2012.73)">
                <g transform="matrix(6.31106,-6.31106,-6.74645,-6.74645,512.893,50647.1)">
                    <path d="M5179.24,1975.95C5175.68,1976.51 5172.03,1976.8 5168.32,1976.8C5133.97,1976.8 5105.37,1951.94 5099.55,1919.25C5103.11,1918.69 5106.76,1918.4 5110.47,1918.4C5144.82,1918.4 5173.42,1943.26 5179.24,1975.95Z" style="fill:rgb(136,197,0);stroke:black;stroke-width:0.2px;"/>
                </g>
                <g transform="matrix(7.26481,-7.26481,-8.79073,-8.79073,-339.709,59636.2)">
                    <path d="M5188.66,1974.83C5182.1,1938.02 5149.15,1910.64 5110.47,1910.64C5106.14,1910.64 5101.89,1910.98 5097.75,1911.63C5092.76,1912.42 5089.4,1916.26 5090.13,1920.37C5096.68,1957.18 5129.64,1984.56 5168.32,1984.56C5172.65,1984.56 5176.89,1984.22 5181.04,1983.57C5186.03,1982.78 5189.39,1978.94 5188.66,1974.83ZM5167.84,1969.04C5140.9,1968.82 5118.71,1950.64 5110.95,1926.16C5137.89,1926.38 5160.08,1944.56 5167.84,1969.04Z"/>
                </g>
            </g>
        </g>
    </g>
</svg>
